<svg width="240" height="234" viewBox="0 0 240 234" fill="none" xmlns="http://www.w3.org/2000/svg">
<rect width="240" height="234" rx="43" fill="#1E1E1E"/>
<g clip-path="url(#clip0_1_136)">
<path d="M120.5 117.5C120.5 110.56 123.266 103.905 128.188 98.9974C133.111 94.0902 139.788 91.3333 146.75 91.3333C153.712 91.3333 160.389 94.0902 165.312 98.9974C170.234 103.905 173 110.56 173 117.5C173 124.44 170.234 131.095 165.312 136.003C160.389 140.91 153.712 143.667 146.75 143.667C139.788 143.667 133.111 140.91 128.188 136.003C123.266 131.095 120.5 124.44 120.5 117.5V117.5Z" fill="#1ABCFE"/>
<path d="M68 169.833C68 162.893 70.7656 156.238 75.6884 151.331C80.6113 146.424 87.2881 143.667 94.25 143.667H120.5V169.833C120.5 176.773 117.734 183.429 112.812 188.336C107.889 193.243 101.212 196 94.25 196C87.2881 196 80.6113 193.243 75.6884 188.336C70.7656 183.429 68 176.773 68 169.833V169.833Z" fill="#0ACF83"/>
<path d="M120.5 39V91.3333H146.75C153.712 91.3333 160.389 88.5765 165.312 83.6693C170.234 78.7621 173 72.1065 173 65.1667C173 58.2268 170.234 51.5712 165.312 46.664C160.389 41.7568 153.712 39 146.75 39H120.5Z" fill="#FF7262"/>
<path d="M68 65.1667C68 72.1065 70.7656 78.7621 75.6884 83.6693C80.6113 88.5765 87.2881 91.3333 94.25 91.3333H120.5V39H94.25C87.2881 39 80.6113 41.7568 75.6884 46.664C70.7656 51.5712 68 58.2268 68 65.1667V65.1667Z" fill="#F24E1E"/>
<path d="M68 117.5C68 124.44 70.7656 131.095 75.6884 136.003C80.6113 140.91 87.2881 143.667 94.25 143.667H120.5V91.3333H94.25C87.2881 91.3333 80.6113 94.0902 75.6884 98.9974C70.7656 103.905 68 110.56 68 117.5V117.5Z" fill="#A259FF"/>
</g>
<defs>
<clipPath id="clip0_1_136">
<rect width="105" height="157" fill="white" transform="translate(68 39)"/>
</clipPath>
</defs>
</svg>
